Coordinates
version=1
nRows=17
nColumns=40
inDegrees=yes

Units are S.I. units (second, meters, Newtons, ...)
Angles are in degrees.

endheader
time	pelvis_tilt	pelvis_list	pelvis_rotation	pelvis_tx	pelvis_ty	pelvis_tz	hip_flexion_r	hip_adduction_r	hip_rotation_r	knee_angle_r	knee_angle_r_beta	ankle_angle_r	subtalar_angle_r	mtp_angle_r	hip_flexion_l	hip_adduction_l	hip_rotation_l	knee_angle_l	knee_angle_l_beta	ankle_angle_l	subtalar_angle_l	mtp_angle_l	lumbar_extension	lumbar_bending	lumbar_rotation	arm_flex_r	arm_add_r	arm_rot_r	elbow_flex_r	pro_sup_r	wrist_flex_r	wrist_dev_r	arm_flex_l	arm_add_l	arm_rot_l	elbow_flex_l	pro_sup_l	wrist_flex_l	wrist_dev_l
     41.09000000	     -4.19545071	     -5.49007032	      2.29547390	      0.97978087	      0.91670701	      0.52314585	     16.76994518	      6.77662435	     -9.74960097	     26.13223617	     26.13223617	     15.53157556	     -8.00970609	      0.19226517	     21.74409430	    -13.79617281	      1.55854720	     61.95695032	     61.95695032	     15.95036484	    -19.39273112	     20.20071903	    -10.72978319	      7.30202290	      1.90339926	      7.06066405	    -13.22611324	    -15.40323428	     22.04853646	     47.15900322	      0.00000000	      0.00000000	     17.44018851	    -10.90411112	     -1.98775443	     45.31636899	     45.84874496	      0.00000000	      0.00000000
     41.10964286	     -3.96992542	     -5.40266399	      2.82869436	      0.97839139	      0.91542847	      0.52461078	     16.63757659	      6.73773005	     -9.92886013	     26.92506196	     26.92506196	     16.11720447	     -8.56049028	     -0.03916616	     23.26726828	    -14.01141623	      1.47976914	     61.46302962	     61.46302962	     16.72774698	    -19.46831275	     20.55699446	    -10.87607092	      7.08621745	      1.91219965	      9.92718088	    -12.92508859	    -15.40457179	     23.49113100	     47.11903733	      0.00000000	      0.00000000	     15.10069699	    -10.49257143	     -1.55384203	     43.55296234	     45.78097443	      0.00000000	      0.00000000
     41.12928571	     -3.70432776	     -5.30853704	      3.38205434	      0.97695864	      0.91421360	      0.52596761	     16.43872375	      6.72822866	    -10.01228623	     27.67974238	     27.67974238	     16.69569903	     -9.30254121	     -0.12062180	     24.71079977	    -14.14932991	      1.40533051	     60.69580661	     60.69580661	     17.52026687	    -19.52254449	     21.15274970	    -11.07267262	      6.89596538	      1.91225914	     12.94157156	    -12.67257443	    -15.31341853	     24.95988481	     47.06882689	      0.00000000	      0.00000000	     12.79774866	    -10.09806805	     -1.03941668	     41.51186677	     45.70368617	      0.00000000	      0.00000000
     41.14892857	     -3.42714663	     -5.20200163	      3.94823081	      0.97546464	      0.91309219	      0.52712246	     16.20079117	      6.70495576	    -10.09629083	     28.39410170	     28.39410170	     17.26047868	    -10.00558125	     -0.16480925	     26.04562324	    -14.18330292	      1.34699297	     59.59161400	     59.59161400	     18.17830485	    -19.55183995	     21.67892589	    -11.30691845	      6.70098045	      1.99758124	     15.96833920	    -12.49394810	    -15.17619488	     26.43940525	     47.01449905	      0.00000000	      0.00000000	     10.56550526	     -9.70639996	     -0.53983949	     39.47124041	     45.62421870	      0.00000000	      0.00000000
     41.16857143	     -3.21614499	     -5.06815059	      4.54857865	      0.97388635	      0.91215284	      0.52793231	     15.93293811	      6.63681643	    -10.21819759	     28.90845499	     28.90845499	     17.77445704	    -10.63138280	     -0.08972618	     27.33900179	    -14.03746101	      1.36999090	     58.13462603	     58.13462603	     18.66448318	    -19.57469915	     22.20566174	    -11.46119840	      6.51101212	      2.03972016	     18.98158404	    -12.38383117	    -14.97479352	     27.94239981	     46.95285626	      0.00000000	      0.00000000	      8.40718031	     -9.27857652	      0.00139337	     37.29082803	     45.53940896	      0.00000000	      0.00000000
     41.18821429	     -3.01922934	     -4.91725193	      5.14432993	      0.97227309	      0.91148068	      0.52839846	     15.61431241	      6.52844802	    -10.38456131	     29.30427215	     29.30427215	     18.24702695	    -11.13779591	      0.00459065	     28.48460078	    -13.75484139	      1.42563222	     56.30123798	     56.30123798	     18.87876363	    -19.57512823	     22.51197403	    -11.60319482	      6.31368779	      2.21685582	     21.87647836	    -12.38673342	    -14.75836839	     29.44981805	     46.88963429	      0.00000000	      0.00000000	      6.36752941	     -8.88057613	      0.49239041	     35.29677901	     45.45862755	      0.00000000	      0.00000000
     41.20785714	     -2.90102796	     -4.75194093	      5.75752461	      0.97056940	      0.91112457	      0.52846349	     15.27484302	      6.37087245	    -10.62582692	     29.49586385	     29.49586385	     18.65428732	    -11.50012045	      0.16126507	     29.54213195	    -13.31151108	      1.55437354	     54.09996089	     54.09996089	     18.79873065	    -19.56399688	     22.56687904	    -11.66448085	      6.13029814	      2.36841344	     24.69435700	    -12.49661453	    -14.50598860	     31.06596833	     46.81795395	      0.00000000	      0.00000000	      4.38757462	     -8.49107504	      0.98668695	     33.37950362	     45.37585494	      0.00000000	      0.00000000
     41.22750000	     -2.83246976	     -4.53029085	      6.34157913	      0.96885506	      0.91122708	      0.52816555	     14.86909860	      6.13132930	    -10.86831599	     29.48049116	     29.48049116	     18.94094355	    -11.70027460	      0.25831274	     30.40868475	    -12.69097906	      1.71722964	     51.51000174	     51.51000174	     18.40267867	    -19.51992343	     22.46870968	    -11.68148793	      5.89974346	      2.71777843	     27.32104013	    -12.78856027	    -14.35219083	     32.60824835	     46.75845842	      0.00000000	      0.00000000	      2.45962956	     -8.11808645	      1.33319035	     31.99120214	     45.30629900	      0.00000000	      0.00000000
     41.24714286	     -2.83402202	     -4.33061801	      6.94754449	      0.96704201	      0.91163947	      0.52747375	     14.43550727	      5.86473603	    -11.24647415	     29.26157045	     29.26157045	     19.14186746	    -11.70968518	      0.38856171	     31.18208061	    -11.95206173	      2.04102532	     48.65760272	     48.65760272	     17.69428988	    -19.46582236	     21.99231729	    -11.64460007	      5.72989009	      2.84839296	     29.92490170	    -12.98706563	    -14.14616619	     34.42808900	     46.68240815	      0.00000000	      0.00000000	      0.49671748	     -7.85122689	      1.71000713	     30.60480463	     45.23094116	      0.00000000	      0.00000000
     41.26678571	     -2.92905537	     -4.08188614	      7.53228000	      0.96525037	      0.91249372	      0.52650852	     13.94640944	      5.53674922	    -11.63942814	     28.77562686	     28.77562686	     19.25392620	    -11.59575829	      0.50239939	     31.78334984	    -11.08327623	      2.40137069	     45.46915414	     45.46915414	     16.71385994	    -19.34911038	     21.56594214	    -11.47832239	      5.44038994	      3.09775367	     32.29863410	    -13.39266156	    -14.01808235	     36.09779854	     46.61888883	      0.00000000	      0.00000000	     -1.32907110	     -7.58162014	      1.98211628	     29.62426583	     45.16800958	      0.00000000	      0.00000000
     41.28642857	     -2.99768339	     -3.87817810	      8.06814509	      0.96347257	      0.91363619	      0.52527699	     13.33629138	      5.20502939	    -12.23998736	     28.13416619	     28.13416619	     19.29899209	    -11.06992732	      0.56476389	     32.16000645	    -10.24693838	      2.81206006	     42.11936632	     42.11936632	     15.28155072	    -19.16429899	     20.05183388	    -11.42481274	      5.25962798	      3.02275368	     34.72863392	    -13.56979165	    -13.73076484	     38.51682659	     46.51208871	      0.00000000	      0.00000000	     -3.29995230	     -7.35591549	      2.38132448	     28.65344618	     45.08598344	      0.00000000	      0.00000000
     41.30607143	     -3.14056303	     -3.72393725	      8.60524069	      0.96183523	      0.91496222	      0.52388429	     12.69560386	      4.89670838	    -12.96381793	     27.31290172	     27.31290172	     19.33519639	    -10.25875126	      0.43749847	     32.29728102	     -9.49518340	      3.18115074	     38.37288209	     38.37288209	     12.88393559	    -18.85796709	     16.41518587	    -11.23450252	      5.11446510	      3.16049194	     36.40159053	    -14.02894812	    -13.14032853	     41.71017743	     46.34462709	      0.00000000	      0.00000000	     -5.17512048	     -7.29396659	      2.94397036	     28.32091819	     44.98683193	      0.00000000	      0.00000000
     41.32571429	     -3.32365412	     -3.52332000	      9.04418340	      0.96029761	      0.91643293	      0.52242800	     12.00854629	      4.62667538	    -13.41347018	     26.31058969	     26.31058969	     19.11059468	     -9.83507230	      0.21777526	     32.24316002	     -8.77189671	      3.43710186	     34.55035668	     34.55035668	     10.34035672	    -18.30922478	     12.43721200	    -11.01127514	      4.86981171	      3.74863417	     37.77665620	    -14.98567460	    -12.46754541	     44.58943238	     46.17751742	      0.00000000	      0.00000000	     -6.84744616	     -7.30682920	      3.75313721	     28.47894101	     44.87261282	      0.00000000	      0.00000000
     41.34535714	     -3.66756027	     -3.45445511	      9.42243531	      0.95869178	      0.91754197	      0.52096260	     11.57328448	      4.49775861	    -13.75208475	     25.40686140	     25.40686140	     18.98646005	     -9.57200648	      0.36071535	     32.54292086	     -8.19787791	      3.76442469	     31.43062710	     31.43062710	      9.69149730	    -16.83270187	     12.77316718	    -10.53260138	      4.74509683	      4.18420047	     39.78586762	    -15.59346721	    -12.54335243	     45.60493180	     46.15433612	      0.00000000	      0.00000000	     -8.23874534	     -7.16125624	      3.83605266	     28.04768728	     44.84102733	      0.00000000	      0.00000000
     41.36500000	     -3.59656311	     -3.31632888	      9.77175086	      0.95777065	      0.91930872	      0.51936957	     10.31332237	      4.34994735	    -14.45699534	     23.92481001	     23.92481001	     18.67831705	     -8.43360596	     -0.35212092	     31.89501468	     -7.78156142	      3.75403489	     27.82517370	     27.82517370	      7.47905767	    -15.34487416	      8.56145011	    -10.61108878	      4.55024936	      4.20454161	     41.04566821	    -15.86453804	    -12.15472137	     48.96206082	     45.98621401	      0.00000000	      0.00000000	    -10.11385162	     -7.32341182	      4.53064833	     28.75520125	     44.77069241	      0.00000000	      0.00000000
     41.38464286	     -3.71070718	     -3.27889171	     10.05281260	      0.95679423	      0.92052096	      0.51782922	      9.39792399	      4.31759293	    -14.97264309	     22.67070367	     22.67070367	     18.55918736	     -7.57958546	     -0.36965227	     31.69857953	     -7.53095373	      3.53821008	     25.13707720	     25.13707720	      7.15864699	    -12.82830213	      8.41078850	    -10.39892029	      4.42910805	      4.21999860	     42.78445657	    -16.00611276	    -12.15432677	     50.37846382	     45.93781526	      0.00000000	      0.00000000	    -11.43881528	     -7.26498048	      4.68528762	     28.50419648	     44.74627037	      0.00000000	      0.00000000
     41.40428571	     -3.88247934	     -3.22706531	     10.26759217	      0.95593812	      0.92138239	      0.51625253	      8.59943601	      4.29277828	    -15.31570544	     21.53552565	     21.53552565	     18.49122984	     -6.98295854	     -0.32568992	     31.43491507	     -7.26940589	      3.30858014	     22.69594498	     22.69594498	      6.87584047	    -10.59960840	      8.46975393	    -10.10488596	      4.20984257	      4.36121828	     44.26930745	    -16.23813913	    -12.17057093	     51.55576300	     45.90157987	      0.00000000	      0.00000000	    -12.53891872	     -7.21275193	      4.71419253	     28.37751824	     44.73346127	      0.00000000	      0.00000000
